<svg xmlns="http://www.w3.org/2000/svg" x="0px" y="0px" width="100" height="100" viewBox="0,0,256,256">
<g transform=""><g fill="#21c321" fill-rule="nonzero" stroke="none" stroke-width="1" stroke-linecap="butt" stroke-linejoin="miter" stroke-miterlimit="10" stroke-dasharray="" stroke-dashoffset="0" font-family="none" font-weight="none" font-size="none" text-anchor="none" style="mix-blend-mode: normal"><path d="M128,256c-70.69245,0 -128,-57.30755 -128,-128v0c0,-70.69245 57.30755,-128 128,-128v0c70.69245,0 128,57.30755 128,128v0c0,70.69245 -57.30755,128 -128,128z" id="shape"></path></g><g fill="none" fill-rule="nonzero" stroke="none" stroke-width="1" stroke-linecap="butt" stroke-linejoin="miter" stroke-miterlimit="10" stroke-dasharray="" stroke-dashoffset="0" font-family="none" font-weight="none" font-size="none" text-anchor="none" style="mix-blend-mode: normal"><g transform="scale(5.33333,5.33333)"><path d="M12.5,42h23c3.59,0 6.5,-2.91 6.5,-6.5v-23c0,-3.59 -2.91,-6.5 -6.5,-6.5h-23c-3.59,0 -6.5,2.91 -6.5,6.5v23c0,3.59 2.91,6.5 6.5,6.5z" fill="#00c300"></path><path d="M37.113,22.417c0,-5.865 -5.88,-10.637 -13.107,-10.637c-7.227,0 -13.108,4.772 -13.108,10.637c0,5.258 4.663,9.662 10.962,10.495c0.427,0.092 1.008,0.282 1.155,0.646c0.132,0.331 0.086,0.85 0.042,1.185c0,0 -0.153,0.925 -0.187,1.122c-0.057,0.331 -0.263,1.296 1.135,0.707c1.399,-0.589 7.548,-4.445 10.298,-7.611h-0.001c1.901,-2.082 2.811,-4.197 2.811,-6.544zM18.875,25.907h-2.604c-0.379,0 -0.687,-0.308 -0.687,-0.688v-5.209c0,-0.379 0.308,-0.687 0.687,-0.687c0.379,0 0.687,0.308 0.687,0.687v4.521h1.917c0.379,0 0.687,0.308 0.687,0.687c0,0.38 -0.308,0.689 -0.687,0.689zM21.568,25.219c0,0.379 -0.308,0.688 -0.687,0.688c-0.379,0 -0.687,-0.308 -0.687,-0.688v-5.209c0,-0.379 0.308,-0.687 0.687,-0.687c0.379,0 0.687,0.308 0.687,0.687zM27.838,25.219c0,0.297 -0.188,0.559 -0.47,0.652c-0.071,0.024 -0.145,0.036 -0.218,0.036c-0.215,0 -0.42,-0.103 -0.549,-0.275l-2.669,-3.635v3.222c0,0.379 -0.308,0.688 -0.688,0.688c-0.379,0 -0.688,-0.308 -0.688,-0.688v-5.209c0,-0.296 0.189,-0.558 0.47,-0.652c0.071,-0.024 0.144,-0.035 0.218,-0.035c0.214,0 0.42,0.103 0.549,0.275l2.67,3.635v-3.223c0,-0.379 0.309,-0.687 0.688,-0.687c0.379,0 0.687,0.308 0.687,0.687zM32.052,21.927c0.379,0 0.688,0.308 0.688,0.688c0,0.379 -0.308,0.687 -0.688,0.687h-1.917v1.23h1.917c0.379,0 0.688,0.308 0.688,0.687c0,0.379 -0.309,0.688 -0.688,0.688h-2.604c-0.378,0 -0.687,-0.308 -0.687,-0.688v-2.603c0,-0.001 0,-0.001 0,-0.001v-0.001v-2.601c0,-0.001 0,-0.001 0,-0.002c0,-0.379 0.308,-0.687 0.687,-0.687h2.604c0.379,0 0.688,0.308 0.688,0.687c0,0.379 -0.308,0.687 -0.688,0.687h-1.917v1.23h1.917z" fill="#ffffff"></path></g></g></g>
</svg>