<svg id="圖層_1" data-name="圖層 1" xmlns="http://www.w3.org/2000/svg" viewBox="0 0 43.92 44.19"><defs><style>.cls-1{fill:#7a609a;fill-rule:evenodd;}.cls-2{fill:#fff;}</style></defs><title>icon-feature1</title><path class="cls-1" d="M0,22.1A22,22,0,1,1,22,44.19,22,22,0,0,1,0,22.1Z"/><path class="cls-2" d="M36.16,18.07a1.53,1.53,0,0,0-1.09-1.13,13.19,13.19,0,0,0-1.6-.2V24c0,.47,0,.95,0,1.42a2.75,2.75,0,0,1-.6,1.79A2.31,2.31,0,0,1,31,28H15.81a2,2,0,0,0,.29,1.4,3,3,0,0,0,2.59,1.39H30a1.19,1.19,0,0,1,.52.14l3.92,2.3.31.17c-.22-.91-.43-1.75-.63-2.59A1.9,1.9,0,0,0,36,29.7a6.68,6.68,0,0,0,.31-.89V18.47C36.23,18.34,36.2,18.21,36.16,18.07Z"/><path class="cls-2" d="M28.66,26.63a4.16,4.16,0,0,0,1.71-.32,2.35,2.35,0,0,0,1.49-2.21c0-3.48,0-7,0-10.42a2.5,2.5,0,0,0-.1-.72,3.16,3.16,0,0,0-3-2.14H11.3A3.93,3.93,0,0,0,8.38,12a2.12,2.12,0,0,0-.73,1.49c0,3.62,0,7.23,0,10.85a2,2,0,0,0,.3.87,2.35,2.35,0,0,0,1.21,1c.46.18.94.31,1.45.47-.3,1.15-.6,2.33-.92,3.55l.28-.16,5.59-3.28a1.15,1.15,0,0,1,.52-.14Zm-2.9-9.92a1.61,1.61,0,1,1-1.61,1.6A1.63,1.63,0,0,1,25.76,16.71Zm-6,0a1.61,1.61,0,1,1-1.61,1.61A1.6,1.6,0,0,1,19.76,16.71Zm-6.12,3.21a1.6,1.6,0,1,1,1.71-1.55A1.62,1.62,0,0,1,13.64,19.92Z"/></svg>