<svg id="圖層_1" data-name="圖層 1" xmlns="http://www.w3.org/2000/svg" viewBox="0 0 43.92 44.19"><defs><style>.cls-1{fill:#ed9248;fill-rule:evenodd;}.cls-2{fill:#fff;}</style></defs><title>icon-feature2</title><path class="cls-1" d="M0,22.1A22,22,0,1,1,22,44.19,22,22,0,0,1,0,22.1Z"/><path class="cls-2" d="M31,17.1A11.4,11.4,0,0,0,22.29,8c-.57-.15-1.16-.22-1.74-.32H18.31l-.94.16a11.39,11.39,0,0,0-7.16,4.22A11.52,11.52,0,0,0,7.86,22a11.33,11.33,0,0,0,5.31,7.63,11.61,11.61,0,0,0,8.19,1.61,11.06,11.06,0,0,0,6-2.83A11.38,11.38,0,0,0,31,17.1ZM19.43,29a9.42,9.42,0,1,1,9.44-9.39A9.4,9.4,0,0,1,19.43,29Z"/><path class="cls-2" d="M36.29,33.48a2.53,2.53,0,0,0-.75-1.35L30.16,26.7a1.57,1.57,0,0,0-.13-.1c-.56.64-1.06,1.29-1.64,1.87s-1.23,1.09-1.88,1.64a.19.19,0,0,0,.06.07c1.9,1.89,3.81,3.79,5.73,5.67a2,2,0,0,0,2,.58A2.67,2.67,0,0,0,36.29,33.48Z"/><path class="cls-2" d="M19.49,11a8.58,8.58,0,1,0-.09,17.15A8.58,8.58,0,0,0,19.49,11ZM25.54,22.6H13.35c-.32,0-.5-.17-.5-.44s.18-.4.48-.4.71,0,1.1,0v-.33c0-1.07,0-2.15,0-3.23a.42.42,0,1,1,.83-.09,1,1,0,0,1,0,.25v3.38h2.19V16.17a.46.46,0,0,1,.27-.5.4.4,0,0,1,.57.34,2.09,2.09,0,0,1,0,.25v5.49h2.24v-.3c0-1.08,0-2.16,0-3.24,0-.3.17-.5.41-.5a.46.46,0,0,1,.43.5v3.53h2.19V16a.62.62,0,0,1,.13-.4.66.66,0,0,1,.45-.12c.21,0,.27.24.27.44,0,1.82,0,3.64,0,5.45v.43h1.11c.3,0,.46.15.47.4A.42.42,0,0,1,25.54,22.6Z"/></svg>