<svg id="圖層_1" data-name="圖層 1" xmlns="http://www.w3.org/2000/svg" viewBox="0 0 44.15 44.19"><defs><style>.cls-1{fill:#b84e4b;fill-rule:evenodd;}.cls-2{fill:#fff;}</style></defs><title>icon-feature4</title><path class="cls-1" d="M0,22.1A22.08,22.08,0,1,1,22.07,44.19,22.08,22.08,0,0,1,0,22.1Z"/><path class="cls-2" d="M10.81,33.2l1.7-1.94a2.08,2.08,0,0,0-1.21-3.42,2.63,2.63,0,0,0-2.42.54,2.47,2.47,0,0,0-.71,1.34v.43H9.76c0-.14,0-.25,0-.37a.81.81,0,0,1,.92-.75.8.8,0,0,1,.63,1,1,1,0,0,1-.1.34,11,11,0,0,1-.83,1.19c-.63.72-1.3,1.39-1.95,2.09a.46.46,0,0,0-.14.21c0,.34,0,.67,0,1h4.83v-1.3H10.45Z"/><path class="cls-2" d="M25.75,9.58a12.35,12.35,0,0,0-8.46,1.1,12.91,12.91,0,0,0-7,9.38H8.25l3.58,6.16L15.52,20H13.39a9.92,9.92,0,0,1,19.39.13,9.61,9.61,0,0,1-1,6.77,10,10,0,0,1-6.52,4.95v3a12.9,12.9,0,0,0,.51-25.34Z"/><path class="cls-2" d="M23.65,30.93A1.59,1.59,0,0,0,21,30a1.79,1.79,0,0,0-.2.26l-.08-.06V27.82H19.08v7.06h1.65v-.32c0-1.08,0-2.17,0-3.25,0-.11,0-.25.07-.3a.93.93,0,0,1,.88-.14.58.58,0,0,1,.4.53,4.21,4.21,0,0,1,0,.62c0,.86,0,1.72,0,2.58a2.53,2.53,0,0,0,0,.28h1.56c0-.06,0-.11,0-.15,0-1,0-2.09,0-3.13A3.81,3.81,0,0,0,23.65,30.93Z"/><path class="cls-2" d="M17.66,27.91c-.49,0-.95,0-1.4,0a.49.49,0,0,0-.32.18q-1.3,2.07-2.6,4.16a.43.43,0,0,0-.1.22c0,.31,0,.61.08,1h2.75v1.47h1.6V33.41h.71V32.19h-.72Zm-1.82,4.3H14.67c.46-.76.89-1.47,1.35-2.25a1.21,1.21,0,0,1,.05.23c0,.6,0,1.2,0,1.79C16.07,32.14,16,32.21,15.84,32.21Z"/><path class="cls-2" d="M21.41,15.4v8.48h5.38V22.39H22.88v-7Z"/></svg>