<svg id="圖層_1" data-name="圖層 1" xmlns="http://www.w3.org/2000/svg" viewBox="0 0 43.92 44.19"><defs><style>.cls-1{fill:#4c7bb2;fill-rule:evenodd;}.cls-2{fill:#fff;}</style></defs><title>icon-feature3</title><path class="cls-1" d="M0,22.1A22,22,0,1,1,22,44.19,22,22,0,0,1,0,22.1Z"/><path class="cls-2" d="M33.75,23.64c-.29.1-.51,0-.54-.24s.12-.39.37-.44a3.39,3.39,0,0,0,2.08-4.66,3.53,3.53,0,0,0-3.92-1.81c-.29.06-.47,0-.52-.24s.07-.38.36-.45a4.36,4.36,0,0,1,2,0,2.35,2.35,0,0,0-.35-1.6,2.88,2.88,0,0,0-3-1.22c-.38.08-.55,0-.6-.24s.09-.39.46-.46l.71-.1L30.69,12a2.39,2.39,0,0,0-4.53.7c-.08.65-.05,1.31-.07,2v.72h.76A2,2,0,0,1,29,17.54c0,3,0,6.08,0,9.12a2.56,2.56,0,0,1,0,.62,1.9,1.9,0,0,1-1.85,1.49c-.32,0-.64,0-1,0v2.71c0,.11,0,.22,0,.32a2,2,0,0,0,1.06,1.63,1.79,1.79,0,0,0,2.49-1.55c0-.07-.08-.14-.13-.2-.27-.26-.57-.49-.82-.77s-.29-.54-.09-.7.38-.09.64.25a2.11,2.11,0,0,0,2.31.86,2.16,2.16,0,0,0,1.63-2.5,2.66,2.66,0,0,0-1.06-1.32c-.21-.14-.32-.31-.18-.55s.36-.23.59,0c.39.33.75.68,1.15,1.06l.22-.14a3,3,0,0,0,.48-4C34.21,23.64,34.05,23.53,33.75,23.64Zm-4-7.92c0-.23.15-.36.37-.34a.34.34,0,0,1,.34.4,4.7,4.7,0,0,0,0,.53A1.7,1.7,0,0,0,32,18a2.17,2.17,0,0,1,.35.07.3.3,0,0,1,.21.42c-.06.12-.25.28-.36.26a2.51,2.51,0,0,1-2.48-2.6C29.69,16,29.71,15.87,29.72,15.72Zm1.22,14.16a.33.33,0,0,1-.48,0l-.21-.21a1.84,1.84,0,0,0-1.18-.57c-.25,0-.39-.16-.35-.41a.33.33,0,0,1,.36-.31,2.7,2.7,0,0,1,1.87,1A.32.32,0,0,1,30.94,29.88Zm1.89-8-.17.07a1.74,1.74,0,0,0-1.17,2.34,2.5,2.5,0,0,1,.07.26.34.34,0,0,1-.26.43.31.31,0,0,1-.42-.23c-.1-.38-.16-.77-.24-1.16a2.49,2.49,0,0,1,1.91-2.36.33.33,0,0,1,.43.22A.32.32,0,0,1,32.83,21.86Z"/><path class="cls-2" d="M16.31,17.47v9.24a1.22,1.22,0,0,0,1.35,1.34h9.27a1.2,1.2,0,0,0,1.33-1.32V17.46a1.23,1.23,0,0,0-1.36-1.34H17.66A1.23,1.23,0,0,0,16.31,17.47Zm10.08.17c.08-.13.2-.29.32-.31s.26.13.35.25,0,.21,0,.32v8.4c0,.12,0,.27-.05.34a.49.49,0,0,1-.37.21c-.1,0-.21-.17-.28-.28a.7.7,0,0,1,0-.29V17.9C26.38,17.81,26.35,17.7,26.39,17.64Zm-5.85.1c.07-.2.13-.39.38-.4s.34.19.41.4l3,8.31c0,.09.05.19.1.36s-.17.22-.29.27a.32.32,0,0,1-.42-.23c-.16-.41-.31-.83-.46-1.25s-.32-.88-.47-1.32a.28.28,0,0,0-.31-.24h-3c-.19,0-.25.08-.31.24-.28.82-.58,1.64-.88,2.46a.58.58,0,0,1-.27.32.35.35,0,0,1-.34-.06.6.6,0,0,1-.07-.43c.21-.65.45-1.3.68-1.94Z"/><path class="cls-2" d="M18.54,29.75l-.14.19c-.56.76-1.12,1.52-1.67,2.29a.48.48,0,0,1-.44.22c-1.5,0-3,0-4.5,0h-.26c-.48-1.09-1.15-1.52-2.08-1.36a1.74,1.74,0,0,0-.16,3.37,1.69,1.69,0,0,0,1.17-.06,1.82,1.82,0,0,0,1-1.24h5a.7.7,0,0,0,.65-.32c.47-.67,1-1.32,1.44-2,.17-.23.35-.46.51-.7a.35.35,0,1,0-.57-.42ZM9.79,33.82a1,1,0,1,1,1-1A1,1,0,0,1,9.79,33.82Z"/><path class="cls-2" d="M9.47,13.1c.87.19,1.61-.29,2-1.33H16.4a.46.46,0,0,1,.3.18c.59.79,1.18,1.6,1.76,2.4.19.24.4.31.58.18s.19-.35,0-.6c-.64-.88-1.29-1.75-1.92-2.62A.59.59,0,0,0,16.6,11H11.52a1.78,1.78,0,0,0-2-1.36,1.74,1.74,0,0,0,0,3.42Zm.32-2.72a1,1,0,0,1,1,1,1,1,0,0,1-1,1,1,1,0,0,1-1-1A1,1,0,0,1,9.79,10.38Z"/><path class="cls-2" d="M9.31,28c.9.21,1.64-.26,2.11-1.35.46,0,.94,0,1.41,0a.75.75,0,0,0,.47-.19c.5-.48,1-1,1.47-1.48.25-.25.28-.45.1-.62s-.37-.11-.6.11c-.43.44-.86.88-1.3,1.31a.45.45,0,0,1-.27.16c-.43,0-.87,0-1.29,0a1.81,1.81,0,0,0-2-1.36A1.74,1.74,0,0,0,8,26.21,1.72,1.72,0,0,0,9.31,28Zm.36-2.72a1,1,0,1,1,0,2,1,1,0,0,1,0-2Z"/><path class="cls-2" d="M9.62,19.67a1.71,1.71,0,0,0,1.68-1.14c.07-.22.18-.26.39-.26s.59,0,.89,0a.62.62,0,0,1,.36.16c.46.44.9.9,1.35,1.34.23.23.42.26.59.07s.09-.39-.08-.57c-.5-.5-1-1-1.52-1.51a.84.84,0,0,0-.47-.2,8.08,8.08,0,0,0-1.1,0,.36.36,0,0,1-.42-.28,1.7,1.7,0,0,0-1.95-1.06A1.72,1.72,0,0,0,8,18a1.32,1.32,0,0,0,0,.31A1.75,1.75,0,0,0,9.62,19.67Zm.05-2.77a1,1,0,1,1-1,1A1,1,0,0,1,9.67,16.9Z"/><path class="cls-2" d="M14.29,21.73h-2.9a1.79,1.79,0,0,0-1.67-1.38,1.74,1.74,0,0,0-.48,3.43,1.71,1.71,0,0,0,2-1.06.37.37,0,0,1,.42-.28H14.3c.45,0,.6-.09.59-.35S14.72,21.73,14.29,21.73ZM9.68,23.11a1,1,0,0,1-1-1,1,1,0,1,1,2,0A1,1,0,0,1,9.68,23.11Z"/><path class="cls-2" d="M22.64,32.9V30c0-.24-.12-.39-.36-.39s-.33.15-.36.37V32.9c-1,.43-1.52,1.16-1.35,2A1.74,1.74,0,0,0,24,35,1.77,1.77,0,0,0,22.64,32.9Zm-.36,2.76a1,1,0,0,1,0-2.06,1,1,0,0,1,0,2.06Z"/><path class="cls-2" d="M21.68,11.18a.31.31,0,0,1,.25.36c0,.42,0,.84,0,1.25V14.1c0,.32.13.48.36.48s.36-.15.36-.48c0-.85,0-1.7,0-2.56a.31.31,0,0,1,.25-.35A1.72,1.72,0,0,0,24,9.13a1.74,1.74,0,0,0-3.41.19A1.72,1.72,0,0,0,21.68,11.18Zm.6-2.64a1,1,0,1,1-1,1A1,1,0,0,1,22.28,8.54Z"/><path class="cls-2" d="M20.93,18.76l-1.48,4.15h3C21.92,21.53,21.44,20.18,20.93,18.76Z"/></svg>